<mxfile host="app.diagrams.net" modified="2024-02-05T09:52:54.657Z" agent="Mozilla/5.0 (Windows NT 10.0; Win64; x64) AppleWebKit/537.36 (KHTML, like Gecko) Chrome/121.0.0.0 Safari/537.36" etag="7jZtwQIvEQ0mdZtKT835" version="23.1.1" type="github">
  <diagram name="Page-1" id="RdtOWf7aQhHNt8c42WqN">
    <mxGraphModel dx="1366" dy="703" grid="1" gridSize="10" guides="1" tooltips="1" connect="1" arrows="1" fold="1" page="1" pageScale="1" pageWidth="827" pageHeight="1169" math="0" shadow="0">
      <root>
        <mxCell id="0" />
        <mxCell id="1" parent="0" />
        <mxCell id="bbMWVLLOVk5g5JQ8IUP6-1" value="Profile Module" style="swimlane;whiteSpace=wrap;html=1;startSize=40;" vertex="1" parent="1">
          <mxGeometry x="180" y="210" width="480" height="690" as="geometry" />
        </mxCell>
        <mxCell id="bbMWVLLOVk5g5JQ8IUP6-3" value="Account Settings" style="swimlane;whiteSpace=wrap;html=1;" vertex="1" parent="bbMWVLLOVk5g5JQ8IUP6-1">
          <mxGeometry x="140" y="50" width="240" height="200" as="geometry" />
        </mxCell>
        <mxCell id="bbMWVLLOVk5g5JQ8IUP6-5" value="Update Profile" style="ellipse;whiteSpace=wrap;html=1;" vertex="1" parent="bbMWVLLOVk5g5JQ8IUP6-3">
          <mxGeometry x="40" y="50" width="160" height="50" as="geometry" />
        </mxCell>
        <mxCell id="bbMWVLLOVk5g5JQ8IUP6-10" value="Connected Accouts" style="ellipse;whiteSpace=wrap;html=1;" vertex="1" parent="bbMWVLLOVk5g5JQ8IUP6-3">
          <mxGeometry x="40" y="120" width="160" height="50" as="geometry" />
        </mxCell>
        <mxCell id="bbMWVLLOVk5g5JQ8IUP6-4" value="Security" style="swimlane;whiteSpace=wrap;html=1;" vertex="1" parent="bbMWVLLOVk5g5JQ8IUP6-1">
          <mxGeometry x="100" y="272" width="320" height="200" as="geometry" />
        </mxCell>
        <mxCell id="bbMWVLLOVk5g5JQ8IUP6-11" value="Active Device Management" style="ellipse;whiteSpace=wrap;html=1;" vertex="1" parent="bbMWVLLOVk5g5JQ8IUP6-4">
          <mxGeometry x="40" y="40" width="240" height="50" as="geometry" />
        </mxCell>
        <mxCell id="bbMWVLLOVk5g5JQ8IUP6-12" value="Delete Account" style="ellipse;whiteSpace=wrap;html=1;" vertex="1" parent="bbMWVLLOVk5g5JQ8IUP6-4">
          <mxGeometry x="80" y="120" width="160" height="50" as="geometry" />
        </mxCell>
        <mxCell id="bbMWVLLOVk5g5JQ8IUP6-13" value="Sign Out" style="ellipse;whiteSpace=wrap;html=1;" vertex="1" parent="bbMWVLLOVk5g5JQ8IUP6-1">
          <mxGeometry x="180" y="611" width="160" height="50" as="geometry" />
        </mxCell>
        <mxCell id="bbMWVLLOVk5g5JQ8IUP6-25" value="Theme" style="swimlane;fontStyle=0;childLayout=stackLayout;horizontal=1;startSize=30;horizontalStack=0;resizeParent=1;resizeParentMax=0;resizeLast=0;collapsible=1;marginBottom=0;whiteSpace=wrap;html=1;" vertex="1" parent="bbMWVLLOVk5g5JQ8IUP6-1">
          <mxGeometry x="190" y="499" width="140" height="90" as="geometry" />
        </mxCell>
        <mxCell id="bbMWVLLOVk5g5JQ8IUP6-26" value="Light" style="text;strokeColor=none;fillColor=none;align=left;verticalAlign=middle;spacingLeft=4;spacingRight=4;overflow=hidden;points=[[0,0.5],[1,0.5]];portConstraint=eastwest;rotatable=0;whiteSpace=wrap;html=1;" vertex="1" parent="bbMWVLLOVk5g5JQ8IUP6-25">
          <mxGeometry y="30" width="140" height="30" as="geometry" />
        </mxCell>
        <mxCell id="bbMWVLLOVk5g5JQ8IUP6-27" value="Dark" style="text;strokeColor=none;fillColor=none;align=left;verticalAlign=middle;spacingLeft=4;spacingRight=4;overflow=hidden;points=[[0,0.5],[1,0.5]];portConstraint=eastwest;rotatable=0;whiteSpace=wrap;html=1;" vertex="1" parent="bbMWVLLOVk5g5JQ8IUP6-25">
          <mxGeometry y="60" width="140" height="30" as="geometry" />
        </mxCell>
        <mxCell id="bbMWVLLOVk5g5JQ8IUP6-34" value="" style="curved=1;endArrow=classic;html=1;rounded=0;entryX=0;entryY=0.5;entryDx=0;entryDy=0;" edge="1" parent="bbMWVLLOVk5g5JQ8IUP6-1" target="bbMWVLLOVk5g5JQ8IUP6-10">
          <mxGeometry width="50" height="50" relative="1" as="geometry">
            <mxPoint x="-70" y="325" as="sourcePoint" />
            <mxPoint x="160" y="200" as="targetPoint" />
            <Array as="points">
              <mxPoint x="-10" y="280" />
              <mxPoint x="60" y="240" />
            </Array>
          </mxGeometry>
        </mxCell>
        <mxCell id="bbMWVLLOVk5g5JQ8IUP6-35" value="" style="curved=1;endArrow=classic;html=1;rounded=0;entryX=0;entryY=0.5;entryDx=0;entryDy=0;" edge="1" parent="bbMWVLLOVk5g5JQ8IUP6-1" target="bbMWVLLOVk5g5JQ8IUP6-12">
          <mxGeometry width="50" height="50" relative="1" as="geometry">
            <mxPoint x="-80" y="360" as="sourcePoint" />
            <mxPoint x="170" y="420" as="targetPoint" />
            <Array as="points">
              <mxPoint x="-40" y="400" />
              <mxPoint x="50" y="420" />
            </Array>
          </mxGeometry>
        </mxCell>
        <mxCell id="bbMWVLLOVk5g5JQ8IUP6-36" value="" style="curved=1;endArrow=classic;html=1;rounded=0;entryX=0;entryY=0.5;entryDx=0;entryDy=0;" edge="1" parent="bbMWVLLOVk5g5JQ8IUP6-1" target="bbMWVLLOVk5g5JQ8IUP6-26">
          <mxGeometry width="50" height="50" relative="1" as="geometry">
            <mxPoint x="-80" y="390" as="sourcePoint" />
            <mxPoint x="160" y="457" as="targetPoint" />
            <Array as="points">
              <mxPoint x="-60" y="460" />
              <mxPoint x="20" y="500" />
            </Array>
          </mxGeometry>
        </mxCell>
        <mxCell id="bbMWVLLOVk5g5JQ8IUP6-37" value="" style="curved=1;endArrow=classic;html=1;rounded=0;entryX=0;entryY=0.5;entryDx=0;entryDy=0;" edge="1" parent="bbMWVLLOVk5g5JQ8IUP6-1" target="bbMWVLLOVk5g5JQ8IUP6-13">
          <mxGeometry width="50" height="50" relative="1" as="geometry">
            <mxPoint x="-100" y="400" as="sourcePoint" />
            <mxPoint x="170" y="544" as="targetPoint" />
            <Array as="points">
              <mxPoint x="-80" y="460" />
              <mxPoint x="-20" y="540" />
            </Array>
          </mxGeometry>
        </mxCell>
        <mxCell id="bbMWVLLOVk5g5JQ8IUP6-14" value="Actor" style="shape=umlActor;verticalLabelPosition=bottom;verticalAlign=top;html=1;outlineConnect=0;" vertex="1" parent="1">
          <mxGeometry x="64" y="521" width="30" height="60" as="geometry" />
        </mxCell>
        <mxCell id="bbMWVLLOVk5g5JQ8IUP6-19" value="" style="endArrow=classic;html=1;rounded=0;entryX=0;entryY=0.5;entryDx=0;entryDy=0;" edge="1" parent="1" source="bbMWVLLOVk5g5JQ8IUP6-14" target="bbMWVLLOVk5g5JQ8IUP6-11">
          <mxGeometry width="50" height="50" relative="1" as="geometry">
            <mxPoint x="100" y="585" as="sourcePoint" />
            <mxPoint x="260" y="460" as="targetPoint" />
            <Array as="points" />
          </mxGeometry>
        </mxCell>
        <mxCell id="bbMWVLLOVk5g5JQ8IUP6-30" value="" style="curved=1;endArrow=classic;html=1;rounded=0;entryX=0;entryY=0.5;entryDx=0;entryDy=0;" edge="1" parent="1" target="bbMWVLLOVk5g5JQ8IUP6-5">
          <mxGeometry width="50" height="50" relative="1" as="geometry">
            <mxPoint x="100" y="520" as="sourcePoint" />
            <mxPoint x="144" y="350" as="targetPoint" />
            <Array as="points">
              <mxPoint x="120" y="460" />
              <mxPoint x="160" y="410" />
            </Array>
          </mxGeometry>
        </mxCell>
      </root>
    </mxGraphModel>
  </diagram>
</mxfile>
